# xmcd
#
# Track frame offsets: 
#        150
#        13972
#        27960
#        38992
#        63377
#        77627
#        91895
#        105047
#        117722
#        128322
#        138232
#        155534
#        171229
#        186297
#        201182
#        213377
#        230642
#        240007
#        257977
#        267709
#        284982
#        302989
#
# Disc length: 4329 seconds
#
# Revision: 2
# Processed by: cddbd v1.5.2PL0 Copyright (c) Steve Scherf et al.
# Submitted via: ExactAudioCopy v0.95b3
#
DISCID=3f10e716
DTITLE=David Allan Coe - Underground and Nothing Sacred
DYEAR=1982
DGENRE=Outlaw Country
TTITLE0=Rock 'N' Roll Fever
TTITLE1=Panheads Forever
TTITLE2=Nigger Fucker
TTITLE3=Coffee
TTITLE4=One Monkey
TTITLE5=One More Time
TTITLE6=Little Susie Shallow Throat
TTITLE7=Pick 'Em, Lick 'Em, Stick 'Em
TTITLE8=Don't Bite The Dick
TTITLE9=Fuckin' In The Butt
TTITLE10=Nothing Sacred
TTITLE11=Pussy Whipped Again
TTITLE12=Cum Stains On The Pillow
TTITLE13=Linda Lovelace
TTITLE14=Fuck Anita Bryant
TTITLE15=Jimmy Buffet Don't Live in Keywest Anymore
TTITLE16=Three Biggest Lies
TTITLE17=Whips n' Things
TTITLE18=Rails
TTITLE19=Masterbation Blues
TTITLE20=Dakota The Dancing Bear 
TTITLE21=If That Ain't Country
EXTD=Strong Adult Content\n\n*branded by wildcard*
EXTT0=
EXTT1=
EXTT2=
EXTT3=
EXTT4=
EXTT5=
EXTT6=
EXTT7=
EXTT8=
EXTT9=
EXTT10=
EXTT11=
EXTT12=
EXTT13=
EXTT14=
EXTT15=
EXTT16=
EXTT17=
EXTT18=
EXTT19=
EXTT20=
EXTT21=
PLAYORDER=
